PathFileType	4	(X/Y/Z)	../Python\walking\Walking21\task.trc
DataRate	CameraRate	NumFrames	NumMarkers	Units	OrigDataRate	OrigDataStartFrame	OrigNumFrames
200.000000	200.000000	6	30	mm	200.000000	414	474
Frame#	Time	CLAV			STRN			RASI			LASI			PE01			RTH1			RTH2			RTH3			RTB1			RTB3			RHEE			RD5M			RTOE			LTH2			LTH3			LTB1			LTB2			LTB3			LHEE			LTOE			LD5M			RBAK			LTH1			RTB2			C7			PE03			LPSI			PE02			RPSI			T10			
		X1	Y1	Z1	X2	Y2	Z2	X3	Y3	Z3	X4	Y4	Z4	X5	Y5	Z5	X6	Y6	Z6	X7	Y7	Z7	X8	Y8	Z8	X9	Y9	Z9	X10	Y10	Z10	X11	Y11	Z11	X12	Y12	Z12	X13	Y13	Z13	X14	Y14	Z14	X15	Y15	Z15	X16	Y16	Z16	X17	Y17	Z17	X18	Y18	Z18	X19	Y19	Z19	X20	Y20	Z20	X21	Y21	Z21	X22	Y22	Z22	X23	Y23	Z23	X24	Y24	Z24	X25	Y25	Z25	X26	Y26	Z26	X27	Y27	Z27	X28	Y28	Z28	X29	Y29	Z29	X30	Y30	Z30	

415	2.07	1414.673706054688	1224.444091796875	149.0892486572266	1473.810180664063	1038.37255859375	150.1135864257813	1436.012573242188	847.0684204101567	259.0674743652345	1445.3876953125	841.0004882812505	31.3696746826172	1248.731811523438	917.8861694335942	157.9292907714844	1457.867431640625	562.186218261719	288.6382141113282	1505.950439453125	501.321716308594	269.8792419433595	1507.928466796875	561.6504516601565	284.7953186035157	1606.686645507813	306.6502990722657	256.532684326172	1619.331542968751	227.7512054443361	249.8273925781251	1600.705566406251	23.99759101867676	184.5126037597657	1748.054565429688	44.70960235595705	249.0013275146486	1773.903442382813	67.85230255126956	202.591033935547	1264.8408203125	548.6317138671877	8.641523361206058	1343.662719726563	559.5537109375002	5.513080120086672	1135.298095703125	306.1689758300782	11.91643524169922	1091.887939453125	240.6229858398439	22.63828277587891	1140.556396484375	247.1950531005861	29.11268997192384	975.019165039063	96.09588623046881	75.48310089111331	1152.600219726563	29.87680625915529	96.28500366210943	1110.192504882813	16.86096763610841	43.43185424804689	1231.199829101563	1214.658203125	233.6374969482423	1307.606811523438	592.5869140625002	-5.072268962860109	1578.064331054688	251.5677032470704	264.7117309570314	1288.600463867188	1319.714965820313	143.9281921386719	1227.149047851563	860.546508789063	130.2551727294922	1240.51611328125	884.7423706054692	113.0700683593751	1227.24951171875	858.9216918945317	181.1799926757813	1237.522583007813	878.6906127929692	198.2833099365236	1259.869140625	1021.700622558594	138.1127014160157	
416	2.075	1421.89306640625	1224.320922851563	149.6526184082032	1481.28759765625	1038.378051757813	150.6303405761719	1443.6123046875	847.4938354492192	259.7049255371095	1453.074340820313	840.2929077148442	32.04168701171876	1256.152709960938	917.901977539063	157.8443603515626	1467.84423828125	563.7011718750002	289.6026306152345	1515.851318359375	502.8471374511721	270.5509338378907	1517.837036132813	563.3713989257815	284.608123779297	1613.345825195313	306.2003784179689	256.4902648925782	1624.647583007813	227.1200714111329	249.7100982666017	1601.488403320313	24.3322105407715	184.6893157958985	1749.186645507813	41.07833862304689	249.0726470947267	1775.912231445313	63.76251983642581	202.7161560058595	1272.478637695313	547.8618774414065	9.1204948425293	1351.269165039063	558.715515136719	6.197798728942875	1140.97900390625	307.3291625976564	12.13685607910157	1096.469848632813	242.5127258300782	22.79641342163087	1145.26416015625	248.2545928955079	29.26307487487794	977.4013671875005	100.2761154174805	75.58123016357425	1152.731567382813	29.73718070983888	96.0832138061524	1109.994995117188	16.98250770568848	43.60646438598634	1238.4814453125	1214.297729492188	234.2213592529298	1315.299438476563	591.811706542969	-4.52769994735718	1583.908447265626	251.6447143554689	264.9358520507814	1295.722045898438	1319.5146484375	144.5662384033204	1234.832641601563	860.3049926757817	130.554183959961	1248.195922851563	884.5098266601567	113.1506118774415	1234.912719726563	858.9813842773442	181.4545593261719	1245.113525390625	878.8757324218755	198.5197906494142	1267.267700195313	1021.457641601563	138.2695770263672	
417	2.08	1429.127075195313	1224.30029296875	150.210433959961	1488.794311523438	1038.486328125	151.1492919921876	1451.224243164063	848.0291137695317	260.3821716308595	1460.792358398438	839.6425170898442	32.7721405029297	1263.570434570313	918.0122680664067	157.7221984863282	1477.778930664063	565.310485839844	290.6104431152345	1525.666259765625	504.4490966796877	271.2491455078126	1527.690551757813	565.1643676757815	284.430633544922	1619.817871093751	305.8058471679689	256.4625854492189	1629.795043945313	226.5838623046876	249.6242980957032	1602.154785156251	24.82483673095705	184.8482208251954	1750.159790039063	37.62516021728517	249.2444763183595	1777.790161132813	59.82037734985354	202.908172607422	1280.365600585938	547.064880371094	9.62889385223389	1359.10791015625	557.9086914062502	6.891716003417972	1146.927856445313	308.5840148925782	12.41640949249268	1101.328125	244.5195159912111	23.03082847595216	1150.255126953125	249.3935546875001	29.40548515319826	980.181274414063	104.6953048706055	75.82830047607425	1152.803466796875	29.55649948120119	95.88539123535159	1109.766723632813	17.16723632812501	43.83618545532228	1245.795532226563	1214.023193359375	234.8251495361329	1323.212158203125	591.0372314453127	-3.95698928833008	1589.588867187501	251.7994079589845	265.177947998047	1302.85546875	1319.3994140625	145.2119140625001	1242.551391601563	860.1423339843755	130.8261260986329	1255.908203125	884.3588256835942	113.2040100097657	1242.593017578125	859.1376953125005	181.6994628906251	1252.725830078125	879.1786499023442	198.7427978515626	1274.693481445313	1021.302490234375	138.4299468994141	
418	2.085	1436.373413085938	1224.381103515625	150.7598571777344	1496.325561523438	1038.695190429688	151.6669006347657	1458.843017578125	848.6705932617192	261.0954895019532	1468.533081054688	839.0548706054692	33.55786514282228	1270.979736328125	918.2153320312505	157.5677642822266	1487.605346679688	566.982360839844	291.6510620117189	1535.342041015625	506.1043701171877	271.9682617187501	1537.424926757813	567.0000610351565	284.2811279296876	1626.095458984376	305.4669189453126	256.4456481933595	1634.774291992188	226.1404724121095	249.5665588378907	1602.745971679688	25.43959045410158	184.9948730468751	1751.014648437501	34.42323303222658	249.5111389160157	1779.556274414063	56.09513092041018	203.1401519775392	1288.511108398438	546.2398681640627	10.16338253021241	1367.189453125	557.1392211914065	7.575514316558841	1153.174072265625	309.9335021972657	12.75236892700196	1106.496948242188	246.6389770507814	23.34093284606934	1155.559204101563	250.609344482422	29.53113937377931	983.4146118164067	109.3510894775391	76.22273254394534	1152.80712890625	29.33645057678224	95.70021057128909	1109.528686523438	17.43476486206055	44.12483215332033	1253.140502929688	1213.83642578125	235.4481658935548	1331.347900390625	590.2652587890627	-3.365531682968141	1595.108398437501	252.0250244140626	265.4448547363282	1309.999389648438	1319.369506835938	145.8635406494141	1250.298217773438	860.0581665039067	131.0738372802735	1263.64599609375	884.2887573242192	113.2346572875977	1250.283813476563	859.3883666992192	181.9177856445313	1260.353881835938	879.5969848632817	198.9554901123048	1282.1416015625	1021.235961914063	138.5961151123047	
419	2.09	1443.62939453125	1224.562133789063	151.2980499267579	1503.876098632813	1039.002075195313	152.1794738769532	1466.462890625	849.4136352539067	261.8406372070314	1476.287475585938	838.5350952148442	34.39480209350587	1278.374877929688	918.509155273438	157.3865814208985	1497.259399414063	568.6829833984377	292.713348388672	1544.827026367188	507.7861633300784	272.7029113769532	1546.979248046876	568.8463134765627	284.1787719726564	1632.169677734376	305.1793518066407	256.4348144531251	1639.580688476563	225.7808227539064	249.5303344726564	1603.289916992188	26.13730430603029	185.1328582763672	1751.779907226563	31.52639579772951	249.8629302978517	1781.221435546876	52.63993072509768	203.3853607177736	1296.923583984375	545.3848266601565	10.71880435943604	1375.524169921875	556.412048339844	8.231139183044437	1159.747924804688	311.3741149902345	13.14072608947755	1112.011474609375	248.8628540039064	23.72399520874024	1161.207641601563	251.8970336914064	29.63153457641603	987.155395507813	114.2366409301758	76.75747680664065	1152.739379882813	29.08271598815919	95.53726196289065	1109.309814453125	17.80710601806641	44.47490310668947	1260.5146484375	1213.738647460938	236.0897064208986	1339.708129882813	589.4970703125002	-2.759270191192628	1600.464721679688	252.3100128173829	265.7400207519532	1317.15185546875	1319.425048828125	146.5193939208985	1258.0654296875	860.0520629882817	131.3005981445313	1271.401611328125	884.2987670898442	113.2473983764649	1257.978515625	859.730834960938	182.1131439208985	1267.991943359375	880.127563476563	199.1613922119142	1289.607421875	1021.258361816407	138.7705383300782	
420	2.095	1450.892578125	1224.841552734375	151.8221282958985	1511.440307617188	1039.403442382813	152.6831970214844	1474.078369140625	850.2524414062505	262.6128845214845	1484.046142578125	838.0880737304692	35.27804946899415	1285.750610351563	918.8915405273442	157.1846923828126	1506.68017578125	570.3775634765627	293.785858154297	1554.071289062501	509.4640197753909	273.4480590820314	1556.296630859376	570.668640136719	284.1425781250001	1638.030029296876	304.9347534179689	256.4261779785157	1644.204956054688	225.4905090332032	249.5073089599611	1603.803466796876	26.87893676757814	185.2637634277344	1752.474975585938	28.9695281982422	250.2867431640626	1782.791259765626	49.49250793457034	203.6203460693361	1305.609741210938	544.4974365234377	11.28820037841797	1384.120849609375	555.7312011718752	8.842860221862797	1166.6806640625	312.898651123047	13.57616806030274	1117.907348632813	251.1788787841798	24.17508506774904	1167.230712890625	253.2494506835939	29.69904136657716	991.453735351563	119.3404006958008	77.41983032226565	1152.6044921875	28.8054599761963	95.40649414062503	1109.1474609375	18.30800247192384	44.88715744018556	1267.916259765625	1213.730712890625	236.7490692138673	1348.29345703125	588.7334594726565	-2.144532680511475	1605.650268554688	252.6387329101564	266.0631103515626	1324.311157226563	1319.565795898438	147.1776580810547	1265.84521484375	860.1233520507817	131.5101623535157	1279.167358398438	884.3878784179692	113.2474975585938	1265.670532226563	860.162231445313	182.2896575927735	1275.634643554688	880.7667846679692	199.3642578125001	1297.085693359375	1021.369384765625	138.9558563232422	
